<svg xmlns="http://www.w3.org/2000/svg" width="171" height="154" viewBox="0 0 171 154">
  <title>logo</title>
  <g>
    <ellipse cx="158.88" cy="46.39" rx="12.12" ry="12.11" style="fill: #e7570f"/>
    <path d="M50.54,91.84h-.18c-.35,0-.89,0-1,.4-.27,9.7-.4,15.42-.4,21.27v2.61a1.4,1.4,0,0,0,1.42,1.24c1.42,0,1.6-.27,1.86-1.51v-23C52.27,92.11,51,91.84,50.54,91.84Z" style="fill: #fff"/>
    <path d="M85.92,104.56c-.67-1.29-1.77-3.19-2.66-4.56s-2.44-2.88-2.48-4.56c0-.58.58-1.68,1.29-1.68,2.13,0,3.06,2.13,4.7,2.13.8,0,1.2-.4,1.2-1.11-.22-2.35-4.21-3.94-6-3.94h-.31a4.15,4.15,0,0,0-4.21,3.9v.84c0,2.26,1.73,4,3,5.8,1.55,2.22,4.17,7,4.26,9.39v.18a3.87,3.87,0,0,1-3.64,4c-2.44,0-2-2.7-3.73-3.19,0,0-.13,0-.18,0-.75,0-1.46,1.11-1.46,1.86,0,2,2.93,4.3,5,4.3,3.77,0,7.49-2.88,7.49-6.6V111A15.49,15.49,0,0,0,86,104.74Z" style="fill: #fff"/>
    <path d="M51.6,83c-1.82,0-1.82,1.68-1.82,3.06a1.25,1.25,0,0,0,1.33,1c1.06,0,1.86-1.42,1.86-2.57A1.34,1.34,0,0,0,51.6,83Z" style="fill: #fff"/>
    <path d="M25.48,104.56c-.67-1.29-1.77-3.19-2.66-4.56s-2.44-2.88-2.48-4.56c0-.58.58-1.68,1.29-1.68,2.13,0,3.06,2.13,4.7,2.13.8,0,1.2-.4,1.2-1.11-.22-2.35-4.21-3.94-6-3.94h-.31A4.15,4.15,0,0,0,17,94.72v.84c0,2.26,1.73,4,3,5.8,1.55,2.22,4.17,7,4.26,9.39v.18a3.87,3.87,0,0,1-3.64,4c-2.44,0-2-2.7-3.73-3.19,0,0-.13,0-.18,0-.75,0-1.46,1.11-1.46,1.86,0,2,2.93,4.3,5,4.3,3.77,0,7.49-2.88,7.49-6.6V111a15.49,15.49,0,0,0-2.17-6.25Z" style="fill: #fff"/>
    <path d="M44,112.22c-2,0-1.91,2.61-5.14,2.61-2.53,0-2.62-1.37-2.88-3.63,0-.89,0-1.82,0-2.79,0-2.88-.09-5.94-.09-8.77,0-1.91,0-4.08.18-5.72l.18-.13A8.71,8.71,0,0,1,38,93.7c1.15,0,2.57,0,3.28,0h.31c.93,0,1.86,0,1.86-1,0-1.77-1.77-2.08-3.5-2.08-.89,0-1.77.09-2.39.09h-1l-.13-.18s0-.8,0-1.06c0-2.53.35-5.05.35-7.53,0-1.33-.22-1.86-1.55-1.86-.8,0-1.06.13-1.37.89-.4,3.41-.53,6.11-.84,9.44,0,0-.13.13-.13.13-1.11.31-1.69.22-2.44,1.28V92c.49,1.33.93,1.42,1.33,1.42s.75,0,1,.35c0,.4,0,.93,0,1.46,0,1.11,0,2.3,0,2.79,0,13.56.4,15.37.58,16,.71,2.84,3,4,5.72,4,2.39,0,5.06-1.77,6.47-3.46v-.58C45.48,113.2,45,112.22,44,112.22Z" style="fill: #fff"/>
    <path d="M67.17,92.51a8.46,8.46,0,0,0-5.9,1.82H61l-.09-.18c-.35-.89-.75-1.77-1.77-1.77-.62,0-1.64,0-1.64.75,0,.58.09,1.24.13,1.73.31,8.55.8,30.84,1.24,34a1.49,1.49,0,0,0,1.55.71,1.21,1.21,0,0,0,1.37-1c-.09-.93-.35-9.48-.53-11.79,0-.31.13-.4.35-.4.67,0,1.29.22,1.86.22A10.09,10.09,0,0,0,71,112.89c2-2.53,3.33-7,3.33-11.12A11.72,11.72,0,0,0,73,95.7C71.33,93.35,70,92.51,67.17,92.51Zm-4.08,21.22c-.44,0-1.64-.35-1.69-.84L60.82,99.2a4.16,4.16,0,0,1,.18-.71c2.13-1.77,3.86-3.06,6.74-3.06,3.15,0,3.15,4.3,3.15,6.6C70.89,106.55,68.72,113.73,63.09,113.73Z" style="fill: #fff"/>
    <path d="M104.46,112.22c-2,0-1.91,2.61-5.14,2.61-2.53,0-2.62-1.37-2.88-3.63,0-.89,0-1.82,0-2.79,0-2.88-.09-5.94-.09-8.77,0-1.91,0-4.08.18-5.72l.18-.13a8.71,8.71,0,0,1,1.73-.09c1.15,0,2.57,0,3.28,0h.31c.93,0,1.86,0,1.86-1,0-1.77-1.77-2.08-3.5-2.08-.89,0-1.77.09-2.39.09H97l-.13-.18s0-.8,0-1.06c0-2.53.35-5.05.35-7.53,0-1.33-.22-1.86-1.55-1.86-.8,0-1.06.13-1.37.89-.4,3.41-.53,6.11-.84,9.44,0,0-.13.13-.13.13-1.11.31-1.69.22-2.44,1.28V92c.49,1.33.93,1.42,1.33,1.42s.75,0,1,.35c0,.4,0,.93,0,1.46,0,1.11,0,2.3,0,2.79,0,13.56.4,15.37.58,16,.71,2.84,3,4,5.72,4,2.39,0,5.06-1.77,6.47-3.46v-.58C105.92,113.2,105.43,112.22,104.46,112.22Z" style="fill: #fff"/>
    <path d="M113.9,92.28h-.31c-1.55.09-4.75.58-4.75,2.57v.66c.18.4,1.29.4,1.69.4,1,0,1.77-.89,2.75-.89h.35c2.75,0,4,1,5.19,3.54a7.47,7.47,0,0,1,.89,3.1H119c-4,0-10.82,0-11.26,8v.35c0,3.9,3.41,6.51,7,6.51h.18a9.43,9.43,0,0,0,5-1.15c.49.13-.4,1.55,1.6,1.55.89,0,1-.75,1.69-1.06.18-2.3.22-4.65.22-7v-2.92C123.35,98.89,121.66,92.28,113.9,92.28ZM120.2,107c0,1.33-.09,2.7-.09,4v.66c-1.2,1.55-3.37,1.95-5.19,1.95-2.17,0-4-2.22-4.08-4.52.35-3.5,3.77-4.92,6.74-4.92a9.38,9.38,0,0,1,1.15.09,6.53,6.53,0,0,1,1.15.22l.27.31s0,1.11,0,1.6Z" style="fill: #fff"/>
    <path d="M137.45,92.51a8.46,8.46,0,0,0-5.9,1.82h-.27l-.09-.18c-.35-.89-.75-1.77-1.77-1.77-.62,0-1.64,0-1.64.75,0,.58.09,1.24.13,1.73.31,8.55.8,30.84,1.24,34a1.49,1.49,0,0,0,1.55.71,1.21,1.21,0,0,0,1.37-1c-.09-.93-.35-9.48-.53-11.79,0-.31.13-.4.35-.4.67,0,1.29.22,1.86.22a10.09,10.09,0,0,0,7.54-3.77c2-2.53,3.33-7,3.33-11.12a11.72,11.72,0,0,0-1.37-6.07C141.62,93.35,140.29,92.51,137.45,92.51Zm-4.08,21.22c-.44,0-1.64-.35-1.69-.84l-.58-13.69a4.16,4.16,0,0,1,.18-.71c2.13-1.77,3.86-3.06,6.74-3.06,3.15,0,3.15,4.3,3.15,6.6C141.18,106.55,139,113.73,133.37,113.73Z" style="fill: #fff"/>
    <path d="M67.74,95.43c-2.88,0-4.61,1.29-6.74,3.06a4.16,4.16,0,0,0-.18.71l.58,13.69c0,.49,1.24.84,1.69.84,5.63,0,7.81-7.18,7.81-11.7C70.89,99.73,70.89,95.43,67.74,95.43Z" style="fill: #5db0be"/>
    <path d="M138,95.43c-2.88,0-4.61,1.29-6.74,3.06a4.16,4.16,0,0,0-.18.71l.58,13.69c0,.49,1.24.84,1.69.84,5.63,0,7.81-7.18,7.81-11.7C141.18,99.73,141.18,95.43,138,95.43Z" style="fill: #5db0be"/>
    <path d="M134.64,46.39a24.23,24.23,0,0,1,24.24-24.22h.1V0H0V154H159V70.6h-.1A24.23,24.23,0,0,1,134.64,46.39ZM27.74,111.25c0,3.72-3.73,6.6-7.49,6.6-2.08,0-5-2.26-5-4.3,0-.75.71-1.86,1.46-1.86,0,0,.13,0,.18,0,1.77.49,1.29,3.19,3.73,3.19a3.87,3.87,0,0,0,3.64-4v-.18c-.09-2.44-2.71-7.18-4.26-9.39-1.29-1.82-3-3.54-3-5.8v-.84a4.15,4.15,0,0,1,4.21-3.9h.31c1.82,0,5.81,1.6,6,3.94,0,.71-.4,1.11-1.2,1.11-1.64,0-2.57-2.13-4.7-2.13-.71,0-1.29,1.11-1.29,1.68,0,1.68,1.6,3.23,2.48,4.56s2,3.28,2.66,4.56l.09.18A15.49,15.49,0,0,1,27.74,111Zm17.74,3.41c-1.42,1.68-4.08,3.46-6.47,3.46-2.71,0-5-1.2-5.72-4-.18-.66-.58-2.48-.58-16,0-.49,0-1.68,0-2.79,0-.53,0-1.06,0-1.46-.22-.31-.53-.35-1-.35s-.84-.09-1.33-1.42v-.18c.75-1.06,1.33-1,2.44-1.28,0,0,.13-.09.13-.13.31-3.32.44-6,.84-9.44.31-.75.58-.89,1.37-.89,1.33,0,1.55.53,1.55,1.86,0,2.48-.35,5-.35,7.53,0,.27,0,1,0,1.06l.13.18h1c.62,0,1.51-.09,2.39-.09,1.73,0,3.5.31,3.5,2.08,0,1-.93,1-1.86,1h-.31c-.71,0-2.13,0-3.28,0a8.71,8.71,0,0,0-1.73.09l-.18.13c-.13,1.64-.18,3.81-.18,5.72,0,2.84.09,5.89.09,8.77,0,1,0,1.91,0,2.79.27,2.26.35,3.63,2.88,3.63,3.24,0,3.1-2.61,5.14-2.61,1,0,1.46,1,1.46,1.86Zm6.78,1.2c-.27,1.24-.44,1.51-1.86,1.51A1.4,1.4,0,0,1,49,116.12v-2.61c0-5.85.13-11.56.4-21.27.09-.35.62-.4,1-.4h.18c.44,0,1.73.27,1.73,1Zm-1.15-28.8a1.25,1.25,0,0,1-1.33-1c0-1.37,0-3.06,1.82-3.06A1.34,1.34,0,0,1,53,84.49C53,85.64,52.18,87.06,51.11,87.06ZM71,112.89a10.09,10.09,0,0,1-7.54,3.77c-.58,0-1.2-.22-1.86-.22-.22,0-.35.09-.35.4.18,2.3.44,10.86.53,11.79a1.21,1.21,0,0,1-1.37,1,1.49,1.49,0,0,1-1.55-.71c-.44-3.19-.93-25.48-1.24-34,0-.49-.13-1.15-.13-1.73,0-.75,1-.75,1.64-.75,1,0,1.42.89,1.77,1.77l.09.18h.27a8.46,8.46,0,0,1,5.9-1.82c2.84,0,4.17.84,5.81,3.19a11.72,11.72,0,0,1,1.37,6.07C74.35,105.84,73.06,110.36,71,112.89Zm17.16-1.64c0,3.72-3.72,6.6-7.49,6.6-2.08,0-5-2.26-5-4.3,0-.75.71-1.86,1.46-1.86,0,0,.13,0,.18,0,1.77.49,1.29,3.19,3.73,3.19a3.87,3.87,0,0,0,3.64-4v-.18c-.09-2.44-2.71-7.18-4.26-9.39-1.29-1.82-3-3.54-3-5.8v-.84a4.15,4.15,0,0,1,4.21-3.9h.31c1.82,0,5.81,1.6,6,3.94,0,.71-.4,1.11-1.2,1.11-1.64,0-2.57-2.13-4.7-2.13-.71,0-1.29,1.11-1.29,1.68,0,1.68,1.6,3.23,2.48,4.56s2,3.28,2.66,4.56l.09.18A15.49,15.49,0,0,1,88.19,111Zm17.74,3.41c-1.42,1.68-4.08,3.46-6.47,3.46-2.71,0-5-1.2-5.72-4-.18-.66-.58-2.48-.58-16,0-.49,0-1.68,0-2.79,0-.53,0-1.06,0-1.46-.22-.31-.53-.35-1-.35s-.84-.09-1.33-1.42v-.18c.75-1.06,1.33-1,2.44-1.28,0,0,.13-.09.13-.13.31-3.32.44-6,.84-9.44.31-.75.58-.89,1.37-.89,1.33,0,1.55.53,1.55,1.86,0,2.48-.35,5-.35,7.53,0,.27,0,1,0,1.06l.13.18h1c.62,0,1.51-.09,2.39-.09,1.73,0,3.5.31,3.5,2.08,0,1-.93,1-1.86,1h-.31c-.71,0-2.13,0-3.28,0a8.71,8.71,0,0,0-1.73.09l-.18.13c-.13,1.64-.18,3.81-.18,5.72,0,2.84.09,5.89.09,8.77,0,1,0,1.91,0,2.79.27,2.26.35,3.63,2.88,3.63,3.24,0,3.1-2.61,5.14-2.61,1,0,1.46,1,1.46,1.86Zm17.43-5.8c0,2.39,0,4.74-.22,7-.67.31-.8,1.06-1.69,1.06-2,0-1.11-1.42-1.6-1.55a9.43,9.43,0,0,1-5,1.15h-.18c-3.59,0-7-2.61-7-6.51v-.35c.44-8,7.23-8,11.26-8h.75a7.47,7.47,0,0,0-.89-3.1c-1.15-2.53-2.44-3.54-5.19-3.54h-.35c-1,0-1.73.89-2.75.89-.4,0-1.51,0-1.69-.4v-.66c0-2,3.19-2.48,4.75-2.57h.31c7.76,0,9.45,6.6,9.45,13.65Zm18,4a10.09,10.09,0,0,1-7.54,3.77c-.58,0-1.2-.22-1.86-.22-.22,0-.35.09-.35.4.18,2.3.44,10.86.53,11.79a1.21,1.21,0,0,1-1.37,1,1.49,1.49,0,0,1-1.55-.71c-.44-3.19-.93-25.48-1.24-34,0-.49-.13-1.15-.13-1.73,0-.75,1-.75,1.64-.75,1,0,1.42.89,1.77,1.77l.09.18h.27a8.46,8.46,0,0,1,5.9-1.82c2.84,0,4.17.84,5.81,3.19a11.72,11.72,0,0,1,1.37,6.07C144.63,105.84,143.35,110.36,141.31,112.89Z" style="fill: #5db1bf"/>
    <path d="M119.89,104.56a6.53,6.53,0,0,0-1.15-.22,9.38,9.38,0,0,0-1.15-.09c-3,0-6.39,1.42-6.74,4.92,0,2.3,1.91,4.52,4.08,4.52,1.82,0,4-.4,5.19-1.95v-.66c0-1.33.09-2.7.09-4v-.58c0-.49,0-1.55,0-1.6Z" style="fill: #5db0be"/>
  </g>
</svg>
