<svg xmlns="http://www.w3.org/2000/svg" width="16" height="17" viewBox="0 0 16 17"><title>oranje-check</title><path d="M15.36.36C15.11.09,14-.12,13.88.07a12.19,12.19,0,0,0-2,3c-.88,2-1.46,4.25-2.34,6.33a12.74,12.74,0,0,1-1,1.83l-.28.45L8.06,12C8,12,8,12,8,12.06s-.25.19-.31.17H7.56a.21.21,0,0,1-.24-.08.43.43,0,0,1-.1-.22c0-.07,0-.07,0-.1l-.08-.06-.34-.29L6.18,11a6.23,6.23,0,0,0-.79-.5,2.63,2.63,0,0,1-.77-.75A15.58,15.58,0,0,1,2.94,6.39,23.65,23.65,0,0,0,.65,8a1.81,1.81,0,0,0,.16,2.9c.8.36,1.73.65,2.09,1.18s.64,1.12,1,1.65A5,5,0,0,0,5.13,15a5.27,5.27,0,0,1,1.3,1.18,2.05,2.05,0,0,0,.64.65,1.68,1.68,0,0,0,.79.14,3.21,3.21,0,0,0,1.66-.41,1.64,1.64,0,0,0,.62-.74,10.1,10.1,0,0,0,.51-1c.12-.3.25-.59.39-.88a7.64,7.64,0,0,1,.4-.82c.25-.43.5-.86.76-1.29.14-.23.38-.41.47-.68C13.77,8.13,14,4.53,16,1.89,16.14,1.64,15.75.78,15.36.36Z" style="fill:#e65925"/></svg>