<svg xmlns="http://www.w3.org/2000/svg" width="14.5mm" height="16.81mm" viewBox="0 0 41.09 47.66"><title>pijl</title><path d="M23.07,16.2c-7.08-.33-13,5-17,10.29C1.32,32.54-1,39.71.44,47.31c.12.61,1,.35.93-.26C-.83,34.31,10,18.73,23.07,17.16A.48.48,0,0,0,23.07,16.2Z" style="fill:#5db1be"/><path d="M40.94,13.38c-.69-2.3-4.05-4.13-5.79-5.48A105.36,105.36,0,0,0,23.46.08a.57.57,0,0,0-.58,1c3,1.8,6,3.7,8.83,5.78,3.72,2.73,9.36,5.58,5.94,11-2.82,4.5-6.32,7.66-7.59,13.11a.57.57,0,0,0,1.1.3c1.95-5.09,4.93-8.62,8-13C40.22,16.74,41.54,15.39,40.94,13.38Z" style="fill:#5db1be"/></svg>